<?xml version="1.0" encoding="UTF-8"?>
<svg width="251px" height="60px" viewBox="0 0 251 60" version="1.1" xmlns="http://www.w3.org/2000/svg" xmlns:xlink="http://www.w3.org/1999/xlink">
    <title>Validator</title>
    <g id="Page-1" stroke="none" stroke-width="1" fill="none" fill-rule="evenodd">
        <g id="Validator" transform="translate(-131.000000, -218.000000)" fill-rule="nonzero">
            <g transform="translate(131.248473, 218.668132)">
                <path d="M17.7865266,58.3318683 C34.1665266,58.3318683 47.9365266,17.1118683 49.5565266,7.30186834 C50.4565266,1.36186834 41.4565266,-0.16813166 41.1865266,1.36186834 C36.0565266,25.4818683 26.3365266,49.6018683 20.0365266,49.0618683 C12.9265266,48.5218683 19.4065266,9.64186834 16.8865266,4.78186834 C13.6465266,-1.87813166 -4.0834734,-0.88813166 0.866526597,3.52186834 C8.0665266,9.91186834 -9.4834734,58.3318683 17.7865266,58.3318683 Z M67.3765266,58.1518683 C74.3065266,58.1518683 81.3265266,43.1218683 81.9565266,40.6918683 C82.6765266,37.9018683 81.3265266,36.1918683 80.6065266,37.9018683 C78.1765266,43.1218683 73.6765266,50.1418683 71.8765266,50.1418683 C69.7155483,50.3257814 70.3027707,45.4830711 71.5022362,40.4256416 L71.6585207,39.7792167 C72.8000368,35.1434598 74.3779396,30.4993683 74.7565266,29.5318683 C76.1065266,26.1118683 67.6465266,25.3018683 66.6565266,27.8218683 C66.6565266,27.9478683 66.5781266,28.1130683 66.4579133,28.354055 L66.3454866,28.5800283 C66.2245266,28.8262683 66.0805266,29.1358683 65.9365266,29.5318683 C64.5865266,27.8218683 62.1565266,26.3818683 57.9265266,26.3818683 C44.3365266,26.3818683 32.0965266,57.7918683 48.2065266,58.1518683 C51.9865266,58.1518683 57.2065266,52.5718683 60.7165266,48.0718683 C60.3565266,53.5618683 61.7065266,58.1518683 67.3765266,58.1518683 Z M51.9865266,50.5018683 C48.2065266,49.7818683 53.4265266,32.6818683 57.9265266,32.3218683 C61.4365266,32.3218683 62.4265266,35.7418683 60.3565266,37.5418683 C59.3665266,38.6218683 60.7165266,39.2518683 62.4265266,38.6218683 C62.4265266,39.6118683 62.1565266,40.6918683 61.7065266,41.4118683 C60.3565266,44.4718683 54.5065266,50.7718683 51.9865266,50.5018683 Z M81.9565266,58.4218683 C88.8865266,58.4218683 95.1865266,43.3918683 95.5465266,40.7818683 C95.9965266,38.1718683 94.8265266,36.2818683 94.1065266,37.9918683 C92.0365266,43.3918683 87.8065266,50.0518683 86.0965266,50.3218683 C81.5065266,50.9518683 93.9265266,6.67186834 94.6465266,4.60186834 C95.7265266,1.27186834 85.9165266,0.28186834 84.8365266,2.53186834 C84.0265266,4.33186834 66.6565266,58.3318683 81.9565266,58.4218683 Z M104.366527,22.6018683 C106.166527,20.8918683 106.526527,18.1918683 105.086527,16.5718683 C103.646527,15.0418683 100.946527,15.1318683 99.1465266,16.8418683 C97.3465266,18.5518683 96.9865266,21.2518683 98.4265266,22.8718683 C99.8665266,24.4018683 102.476527,24.3118683 104.366527,22.6018683 Z M97.1665266,58.4218683 C104.096527,58.5118683 110.306527,43.3918683 110.756527,40.7818683 C111.206527,38.1718683 110.036527,36.2818683 109.316527,37.9918683 C107.246527,43.3918683 102.926527,50.2318683 101.216527,50.3218683 C98.9625266,50.4198683 99.4830155,44.915535 100.54121,39.5315481 L100.67332,38.873275 C101.547527,34.6034683 102.704527,30.5578683 103.016527,29.6218683 C104.096527,26.3818683 96.1765266,25.7518683 95.0965266,28.0918683 C94.1965266,29.8018683 83.7565266,58.3318683 97.1665266,58.4218683 Z M132.266527,58.4218683 C139.196527,58.4218683 145.406527,43.3918683 145.856527,40.7818683 C146.306527,38.1718683 145.046527,36.2818683 144.416527,37.9918683 C142.256527,43.3918683 138.026527,50.0518683 136.316527,50.3218683 C131.816527,50.9518683 144.146527,6.67186834 144.866527,4.60186834 C145.946527,1.27186834 136.136527,0.28186834 135.056527,2.53186834 C135.011009,2.63428213 134.907942,2.92085764 134.757328,3.36940152 L134.670521,3.6299914 C133.61939,6.80843127 130.769065,16.2010866 128.588964,26.3303379 L128.401139,27.2128655 L128.401139,27.2128655 L128.217054,28.0983059 C128.186705,28.2460776 128.156527,28.3939373 128.126527,28.5418683 C126.686527,27.4618683 124.526527,26.6518683 121.466527,26.6518683 C108.326527,26.6518683 97.6165266,57.8818683 113.456527,58.3318683 C117.506527,58.5118683 122.816527,52.3018683 125.966527,47.5318683 C126.146527,53.9218683 127.856527,58.4218683 132.266527,58.4218683 Z M116.696527,50.6818683 C113.006527,49.9618683 117.596527,32.9518683 121.736527,32.7718683 C125.066527,32.5918683 126.326527,36.1018683 124.526527,37.8118683 C123.536527,38.8018683 124.796527,39.3418683 126.416527,39.0718683 C126.326527,39.9718683 126.236527,40.8718683 126.146527,41.7718683 C124.616527,44.9218683 119.216527,51.2218683 116.696527,50.6818683 Z" id="Valid" fill="#49C300"></path>
                <path d="M167.816527,58.1518683 C174.746527,58.1518683 181.766527,43.1218683 182.396527,40.6918683 C183.116527,37.9018683 181.766527,36.1918683 181.046527,37.9018683 C178.616527,43.1218683 174.116527,50.1418683 172.316527,50.1418683 C170.155548,50.3257814 170.742771,45.4830711 171.942236,40.4256416 L172.098521,39.7792167 C173.240037,35.1434598 174.81794,30.4993683 175.196527,29.5318683 C176.546527,26.1118683 168.086527,25.3018683 167.096527,27.8218683 C167.096527,27.9478683 167.018127,28.1130683 166.897913,28.354055 L166.785487,28.5800283 C166.664527,28.8262683 166.520527,29.1358683 166.376527,29.5318683 C165.026527,27.8218683 162.596527,26.3818683 158.366527,26.3818683 C144.776527,26.3818683 132.536527,57.7918683 148.646527,58.1518683 C152.426527,58.1518683 157.646527,52.5718683 161.156527,48.0718683 C160.796527,53.5618683 162.146527,58.1518683 167.816527,58.1518683 Z M152.426527,50.5018683 C148.646527,49.7818683 153.866527,32.6818683 158.366527,32.3218683 C161.876527,32.3218683 162.866527,35.7418683 160.796527,37.5418683 C159.806527,38.6218683 161.156527,39.2518683 162.866527,38.6218683 C162.866527,39.6118683 162.596527,40.6918683 162.146527,41.4118683 C160.796527,44.4718683 154.946527,50.7718683 152.426527,50.5018683 Z M183.656527,58.4218683 C190.586527,58.4218683 196.886527,43.3918683 197.246527,40.7818683 C197.696527,38.1718683 196.526527,36.2818683 195.806527,37.9918683 C193.736527,43.3918683 189.506527,50.0518683 187.706527,50.3218683 C185.696827,50.5990683 187.102231,41.8048983 189.293109,31.8693366 L189.46537,31.0929658 C189.49433,30.9632319 189.523411,30.8333403 189.552607,30.7033083 L189.729119,29.9215705 C189.966189,28.8773775 190.209895,27.8264223 190.457287,26.7775983 L190.643476,25.9915189 L190.643476,25.9915189 L190.924747,24.8157221 L190.924747,24.8157221 L191.113182,24.0352884 C191.207527,23.6459313 191.302027,23.2579683 191.396527,22.8718683 C195.536527,22.7818683 199.226527,22.4218683 200.396527,21.9718683 C204.446527,20.5318683 206.786527,13.3318683 203.726527,14.4118683 C201.566527,15.1318683 197.426527,16.0318683 193.016527,16.4818683 C194.726527,10.0918683 196.076527,5.23186834 196.256527,4.60186834 C197.426527,1.27186834 187.616527,0.28186834 186.536527,2.53186834 C186.266527,3.07186834 184.376527,8.92186834 182.306527,16.6618683 C180.416527,16.3918683 178.886527,15.9418683 177.986527,15.1318683 C176.906527,14.2318683 175.466527,17.4718683 176.456527,20.0818683 C176.816527,21.0718683 178.526527,21.7918683 180.956527,22.2418683 C180.427327,24.4846683 179.917531,26.8068483 179.457515,29.14247 L179.263501,30.1440815 C176.592463,44.1727803 175.869727,58.3462683 183.656527,58.4218683 Z M202.286527,58.3318683 C211.916527,58.3318683 216.416527,46.1818683 216.956527,42.4918683 C217.406527,39.6118683 217.406527,37.6318683 217.136527,36.1918683 C217.226527,36.0118683 217.226527,35.9218683 217.316527,35.8318683 C218.576527,32.5018683 217.046527,26.6518683 208.406527,26.6518683 C195.266527,26.6518683 183.656527,58.3318683 202.286527,58.3318683 Z M203.726527,50.6818683 C199.226527,50.1418683 203.726527,32.8618683 208.766527,32.7718683 C212.096527,32.6818683 213.356527,36.1018683 211.556527,37.8118683 C210.746527,38.6218683 211.466527,39.1618683 212.726527,39.1618683 C211.196527,44.3818683 207.326527,51.1318683 203.726527,50.6818683 Z M228.476527,56.7118683 C228.548527,56.7118683 228.562927,56.6542683 228.565807,56.5851483 L228.566527,56.4418683 L228.566527,56.4418683 C230.996527,42.0418683 238.286527,34.3918683 240.446527,34.3018683 C245.486527,34.1218683 239.816527,41.7718683 244.226527,42.1318683 C247.286527,42.4918683 254.486527,26.9218683 243.956527,26.7418683 C238.196527,26.7418683 232.886527,33.4018683 229.466527,40.6918683 C230.546527,36.1018683 231.806527,32.0518683 232.076527,30.5218683 C232.616527,27.1918683 223.166527,24.8518683 222.266527,28.2718683 C221.096527,33.0418683 217.406527,44.9218683 219.206527,50.8618683 C221.096527,56.9818683 227.666527,59.2318683 228.476527,56.7118683 Z" id="ator" fill="#CD0000"></path>
            </g>
        </g>
    </g>
</svg>