<?xml version="1.0" encoding="UTF-8"?>
<svg width="359px" height="121px" viewBox="0 0 359 121" version="1.1" xmlns="http://www.w3.org/2000/svg" xmlns:xlink="http://www.w3.org/1999/xlink">
    <title>Group</title>
    <defs>
        <linearGradient x1="92.5994668%" y1="47.0041111%" x2="7.39923591%" y2="52.9961131%" id="linearGradient-1">
            <stop stop-color="#11945A" offset="0%"></stop>
            <stop stop-color="#25C07C" offset="100%"></stop>
        </linearGradient>
        <linearGradient x1="88.0026955%" y1="88.0055652%" x2="11.0495196%" y2="11.0498799%" id="linearGradient-2">
            <stop stop-color="#0D7044" offset="10.8%"></stop>
            <stop stop-color="#11945A" offset="43.3%"></stop>
        </linearGradient>
        <linearGradient x1="92.5994668%" y1="7.40090396%" x2="7.39923591%" y2="92.6022832%" id="linearGradient-3">
            <stop stop-color="#2AC782" offset="0%"></stop>
            <stop stop-color="#21B876" offset="100%"></stop>
        </linearGradient>
    </defs>
    <g id="Page-1" stroke="none" stroke-width="1" fill="none" fill-rule="evenodd">
        <g id="Validator" transform="translate(-82.000000, -185.000000)" fill-rule="nonzero">
            <g id="Group" transform="translate(82.000000, 185.000000)">
                <path d="M109.685,92.72 C114.665,92.72 119.195,90.38 123.275,85.7 L123.275,85.7 L123.275,89.3 C123.275,90.08 123.605,90.725 124.265,91.235 C124.925,91.745 125.735,92 126.695,92 C127.775,92 128.66,91.745 129.35,91.235 C130.04,90.725 130.385,90.08 130.385,89.3 L130.385,89.3 L130.385,66.26 C130.385,61.28 128.99,57.125 126.2,53.795 C123.41,50.465 119.075,48.8 113.195,48.8 C110.135,48.8 107.24,49.325 104.51,50.375 C101.78,51.425 100.415,52.64 100.415,54.02 C100.415,54.92 100.67,55.775 101.18,56.585 C101.69,57.395 102.365,57.8 103.205,57.8 C103.385,57.8 104.435,57.365 106.355,56.495 C108.275,55.625 110.495,55.19 113.015,55.19 C116.315,55.19 118.79,56.3 120.44,58.52 C122.09,60.74 122.915,63.35 122.915,66.35 L122.915,66.35 L122.915,68.24 L118.595,68.24 C111.755,68.24 106.535,69.155 102.935,70.985 C99.335,72.815 97.535,76.07 97.535,80.75 C97.535,84.65 98.66,87.62 100.91,89.66 C103.16,91.7 106.085,92.72 109.685,92.72 Z M112.025,86.69 C109.925,86.69 108.245,86.12 106.985,84.98 C105.725,83.84 105.095,82.16 105.095,79.94 C105.095,78.68 105.365,77.615 105.905,76.745 C106.445,75.875 107.15,75.185 108.02,74.675 C108.89,74.165 110,73.775 111.35,73.505 C112.7,73.235 114.005,73.055 115.265,72.965 C116.525,72.875 118.025,72.83 119.765,72.83 L119.765,72.83 L122.915,72.83 L122.915,77.51 C122.915,79.61 121.73,81.665 119.36,83.675 C116.99,85.685 114.545,86.69 112.025,86.69 Z M145.145,92 C146.165,92 147.05,91.715 147.8,91.145 C148.55,90.575 148.925,89.96 148.925,89.3 L148.925,89.3 L148.925,26.21 C148.925,25.43 148.565,24.8 147.845,24.32 C147.125,23.84 146.225,23.6 145.145,23.6 C144.065,23.6 143.18,23.84 142.49,24.32 C141.8,24.8 141.455,25.43 141.455,26.21 L141.455,26.21 L141.455,89.3 C141.455,90.02 141.815,90.65 142.535,91.19 C143.255,91.73 144.125,92 145.145,92 Z M164.045,37.64 C165.305,37.64 166.385,37.205 167.285,36.335 C168.185,35.465 168.635,34.46 168.635,33.32 C168.635,32.18 168.185,31.19 167.285,30.35 C166.385,29.51 165.305,29.09 164.045,29.09 C162.725,29.09 161.615,29.51 160.715,30.35 C159.815,31.19 159.365,32.18 159.365,33.32 C159.365,34.46 159.815,35.48 160.715,36.38 C161.675,37.22 162.785,37.64 164.045,37.64 Z M164.045,92 C165.065,92 165.95,91.715 166.7,91.145 C167.45,90.575 167.825,89.96 167.825,89.3 L167.825,89.3 L167.825,51.95 C167.825,51.17 167.465,50.54 166.745,50.06 C166.025,49.58 165.125,49.34 164.045,49.34 C163.025,49.34 162.155,49.58 161.435,50.06 C160.715,50.54 160.355,51.17 160.355,51.95 L160.355,51.95 L160.355,89.3 C160.355,90.02 160.715,90.65 161.435,91.19 C162.155,91.73 163.025,92 164.045,92 Z M192.665,92.72 C195.365,92.72 197.855,92.03 200.135,90.65 C202.415,89.27 204.065,87.62 205.085,85.7 L205.085,85.7 L205.085,89.3 C205.085,90.02 205.43,90.65 206.12,91.19 C206.81,91.73 207.605,92 208.505,92 C209.525,92 210.395,91.73 211.115,91.19 C211.835,90.65 212.195,90.02 212.195,89.3 L212.195,89.3 L212.195,26.21 C212.195,25.43 211.85,24.8 211.16,24.32 C210.47,23.84 209.585,23.6 208.505,23.6 C207.425,23.6 206.525,23.84 205.805,24.32 C205.085,24.8 204.725,25.43 204.725,26.21 L204.725,26.21 L204.725,55.64 C203.645,53.72 202.085,52.1 200.045,50.78 C198.005,49.46 195.635,48.8 192.935,48.8 C188.555,48.8 184.775,50.495 181.595,53.885 C178.415,57.275 176.825,61.34 176.825,66.08 L176.825,66.08 L176.825,75.26 C176.825,79.82 178.415,83.87 181.595,87.41 C184.775,90.95 188.465,92.72 192.665,92.72 Z M194.465,85.97 C191.765,85.97 189.395,84.875 187.355,82.685 C185.315,80.495 184.295,78.02 184.295,75.26 L184.295,75.26 L184.295,66.08 C184.295,63.38 185.315,60.95 187.355,58.79 C189.395,56.63 191.795,55.55 194.555,55.55 C197.255,55.55 199.625,56.525 201.665,58.475 C203.705,60.425 204.725,62.96 204.725,66.08 L204.725,66.08 L204.725,77.69 C204.725,79.19 203.675,80.945 201.575,82.955 C199.475,84.965 197.105,85.97 194.465,85.97 Z M232.265,92.72 C237.245,92.72 241.775,90.38 245.855,85.7 L245.855,85.7 L245.855,89.3 C245.855,90.08 246.185,90.725 246.845,91.235 C247.505,91.745 248.315,92 249.275,92 C250.355,92 251.24,91.745 251.93,91.235 C252.62,90.725 252.965,90.08 252.965,89.3 L252.965,89.3 L252.965,66.26 C252.965,61.28 251.57,57.125 248.78,53.795 C245.99,50.465 241.655,48.8 235.775,48.8 C232.715,48.8 229.82,49.325 227.09,50.375 C224.36,51.425 222.995,52.64 222.995,54.02 C222.995,54.92 223.25,55.775 223.76,56.585 C224.27,57.395 224.945,57.8 225.785,57.8 C225.965,57.8 227.015,57.365 228.935,56.495 C230.855,55.625 233.075,55.19 235.595,55.19 C238.895,55.19 241.37,56.3 243.02,58.52 C244.67,60.74 245.495,63.35 245.495,66.35 L245.495,66.35 L245.495,68.24 L241.175,68.24 C234.335,68.24 229.115,69.155 225.515,70.985 C221.915,72.815 220.115,76.07 220.115,80.75 C220.115,84.65 221.24,87.62 223.49,89.66 C225.74,91.7 228.665,92.72 232.265,92.72 Z M234.605,86.69 C232.505,86.69 230.825,86.12 229.565,84.98 C228.305,83.84 227.675,82.16 227.675,79.94 C227.675,78.68 227.945,77.615 228.485,76.745 C229.025,75.875 229.73,75.185 230.6,74.675 C231.47,74.165 232.58,73.775 233.93,73.505 C235.28,73.235 236.585,73.055 237.845,72.965 C239.105,72.875 240.605,72.83 242.345,72.83 L242.345,72.83 L245.495,72.83 L245.495,77.51 C245.495,79.61 244.31,81.665 241.94,83.675 C239.57,85.685 237.125,86.69 234.605,86.69 Z M280.775,92 C281.735,92 282.515,91.67 283.115,91.01 C283.715,90.35 284.015,89.57 284.015,88.67 C284.015,87.77 283.73,87.005 283.16,86.375 C282.59,85.745 281.795,85.43 280.775,85.43 L280.775,85.43 L277.985,85.43 C275.225,85.43 273.29,84.905 272.18,83.855 C271.07,82.805 270.515,80.99 270.515,78.41 L270.515,78.41 L270.515,55.19 L281.855,55.19 C282.515,55.19 283.055,54.905 283.475,54.335 C283.895,53.765 284.105,53.09 284.105,52.31 C284.105,51.53 283.895,50.84 283.475,50.24 C283.055,49.64 282.515,49.34 281.855,49.34 L281.855,49.34 L270.515,49.34 L270.515,32.06 C270.515,31.34 270.125,30.725 269.345,30.215 C268.565,29.705 267.695,29.45 266.735,29.45 C265.835,29.45 264.995,29.705 264.215,30.215 C263.435,30.725 263.045,31.34 263.045,32.06 L263.045,32.06 L263.045,78.41 C263.045,87.47 268.025,92 277.985,92 L277.985,92 L280.775,92 Z M306.515,92.72 C311.255,92.72 315.41,90.95 318.98,87.41 C322.55,83.87 324.335,79.82 324.335,75.26 L324.335,75.26 L324.335,66.08 C324.335,61.4 322.565,57.35 319.025,53.93 C315.485,50.51 311.315,48.8 306.515,48.8 C301.715,48.8 297.56,50.525 294.05,53.975 C290.54,57.425 288.785,61.46 288.785,66.08 L288.785,66.08 L288.785,75.26 C288.785,79.88 290.555,83.945 294.095,87.455 C297.635,90.965 301.775,92.72 306.515,92.72 Z M306.515,85.97 C303.755,85.97 301.355,84.89 299.315,82.73 C297.275,80.57 296.255,78.08 296.255,75.26 L296.255,75.26 L296.255,66.08 C296.255,63.38 297.26,60.95 299.27,58.79 C301.28,56.63 303.695,55.55 306.515,55.55 C309.335,55.55 311.765,56.63 313.805,58.79 C315.845,60.95 316.865,63.38 316.865,66.08 L316.865,66.08 L316.865,75.26 C316.865,78.02 315.845,80.495 313.805,82.685 C311.765,84.875 309.335,85.97 306.515,85.97 Z M337.025,92 C338.045,92 338.93,91.715 339.68,91.145 C340.43,90.575 340.805,89.96 340.805,89.3 L340.805,89.3 L340.805,68.78 C340.805,64.88 341.945,61.7 344.225,59.24 C346.505,56.78 349.175,55.55 352.235,55.55 L352.235,55.55 L355.295,55.55 C356.075,55.55 356.75,55.22 357.32,54.56 C357.89,53.9 358.175,53.12 358.175,52.22 C358.175,51.32 357.89,50.525 357.32,49.835 C356.75,49.145 356.075,48.8 355.295,48.8 L355.295,48.8 L352.235,48.8 C349.655,48.8 347.315,49.52 345.215,50.96 C343.115,52.4 341.525,54.14 340.445,56.18 L340.445,56.18 L340.445,51.95 C340.445,51.17 340.115,50.54 339.455,50.06 C338.795,49.58 337.985,49.34 337.025,49.34 C335.945,49.34 335.06,49.58 334.37,50.06 C333.68,50.54 333.335,51.17 333.335,51.95 L333.335,51.95 L333.335,89.3 C333.335,90.02 333.695,90.65 334.415,91.19 C335.135,91.73 336.005,92 337.025,92 Z" id="alidator" fill="url(#linearGradient-1)"></path>
                <g id="icons8-checkmark" transform="translate(0.000000, 6.000000)">
                    <path d="M58.76,70.999 L84.5754816,96.8139767 C86.4172832,98.6581215 86.4730953,101.611266 84.7429181,103.522622 L84.5754816,103.698694 L74.700295,113.573669 C72.8561108,115.417814 69.9029034,115.473697 67.9915056,113.741319 L67.8154299,113.573669 L41.999,87.758 L18.1845701,111.573669 C16.2827551,113.475444 13.20152,113.475444 11.299705,111.573669 L1.4245184,101.698694 C-0.474839465,99.7969201 -0.474839465,96.715751 1.4245184,94.8139767 L25.239,70.999 L58.76,70.999 Z" id="Path" fill="#CC0020"></path>
                    <path d="M38.6579497,84.5632439 L1.43856789,47.3426484 C-0.479522629,45.4244954 -0.479522629,42.31679 1.43856789,40.398637 L11.3982653,30.4386148 C13.3163558,28.5204617 16.4239598,28.5204617 18.3420503,30.4386148 L55.5614321,67.6592102 C57.4795226,69.5773633 57.4795226,72.6850686 55.5614321,74.6032217 L45.6017347,84.5632439 C43.6836442,86.4789187 40.5760402,86.4789187 38.6579497,84.5632439 Z" id="Path" fill="url(#linearGradient-2)"></path>
                    <path d="M28.4245184,67.8139767 L94.813587,1.42633068 C96.715402,-0.475443559 99.7966372,-0.475443559 101.698452,1.42633068 L111.573639,11.3013057 C113.475454,13.2030799 113.475454,16.284249 111.573639,18.1860233 L45.1845701,84.5736693 C43.2827551,86.4754436 40.20152,86.4754436 38.299705,84.5736693 L28.4245184,74.6986943 C26.5251605,72.7969201 26.5251605,69.715751 28.4245184,67.8139767 Z" id="Path" fill="url(#linearGradient-3)"></path>
                </g>
            </g>
        </g>
    </g>
</svg>