<svg xmlns="http://www.w3.org/2000/svg" viewBox="0 0 444 50"><defs><linearGradient id="a" x1="50%" x2="50%" y1="16.1085%" y2="82.7546%"><stop offset="0%" stop-color="#F38EFF"/><stop offset="50.5188%" stop-color="#4CD3F5"/><stop offset="100%" stop-color="#00FFAF"/></linearGradient></defs><path fill="url(#a)" fill-rule="nonzero" d="M95.4238 245.3633l4.3242-12.0235H49.545l-3.2696 9.0704H83.084l-1.0547 2.953h13.3945zM84.666 275l4.8516-13.5v-.1055H76.123l-1.582 4.5352h-13.5c1.387-3.7732 2.2855-6.2666 2.6954-7.4803l.0732-.219c.123-.372.1845-.583.1845-.6327H79.92l2.9531-8.332H67.1582c.211-.7735.668-2.1095 1.3711-4.0079H49.334L38.5762 275H84.666zm25.7344 0c3.164-8.5313 8.2266-22.418 15.1875-41.6602h-23.3086l-3.2695 9.0704h4.1132L91.3105 275h19.0899zm27 0l4.8516-13.5v-.1055h-13.3946l-1.582 4.5352h-10.5469L113.459 275h23.9414zm48.4101 0c1.5 0 2.836-.1758 4.0079-.5273 1.6171-.5157 2.7421-1.3594 3.375-2.5313.914-2.3906 3.9375-10.7226 9.0703-24.996 1.4062-3.293 2.1093-5.7892 2.1093-7.4884v-.6328c0-.5976-.0703-1.0547-.2109-1.371-.6562-2.7423-3.2226-4.1134-7.6992-4.1134h-33.1172c-2.414 0-4.3828.457-5.9062 1.3711-.961.4688-2.1915 3.0352-3.6915 7.6993h28.4766c.9024 0 1.4649.5625 1.6875 1.6875v.1054c0 .6328-1.8984 5.9766-5.6953 16.0313-.914 3.7969-2.6016 5.6953-5.0625 5.6953h-6.2227c-.9726 0-1.5351-.6328-1.6875-1.8985v-.1054c.1758-.7969 2.3907-7.0195 6.6446-18.668h-19.1953l-4.8516 13.3945c-2.5313 6.797-3.7969 10.5235-3.7969 11.1797v.5274c0 .6094.1406 1.207.4219 1.793.9375 1.8984 2.0625 2.8476 3.375 2.8476h37.9687zm55.0547 0c1.5 0 2.836-.1758 4.0078-.5273 1.6172-.5157 2.7422-1.3594 3.375-2.5313.9141-2.3906 3.9375-10.7226 9.0704-24.996 1.4062-3.293 2.1093-5.7892 2.1093-7.4884v-.6328c0-.5976-.0703-1.0547-.2109-1.371-.6563-2.7423-3.2227-4.1134-7.6992-4.1134h-33.1172c-2.414 0-4.3828.457-5.9063 1.3711-.9609.4688-2.1914 3.0352-3.6914 7.6993h28.4766c.9023 0 1.4648.5625 1.6875 1.6875v.2109c-.1875.914-1.8398 5.625-4.957 14.1328 0 .1524 1.9687 5.6719 5.9062 16.5586h.9492zm-.8437 7.8047l-10.7578-29.7422h-2.1094l-4.6406 12.8672h-.5274c-.9726 0-1.5351-.6328-1.6875-1.8985v-.1054c.1992-.832 2.414-7.0547 6.6446-18.668H207.748l-4.8515 13.3945c-2.5313 6.797-3.7969 10.5235-3.7969 11.1797v.5274c0 .6094.1406 1.207.4219 1.793.9375 1.8984 2.0625 2.8476 3.375 2.8476h20.9883c0 .1406.914 2.7422 2.7422 7.8047h13.3945zM295.9199 275c3.9024 0 6.3985-1.0898 7.4883-3.2695l13.9219-38.3907h-19.1953c-6.3985 17.7188-9.6328 26.6133-9.7032 26.6836-.9726 3.9375-2.6953 5.9063-5.168 5.9063h-6.2226c-.9726 0-1.5351-.6328-1.6875-1.8985v-.3164l10.9688-30.375H267.127l-8.2266 22.7813c-3.164 8.3437-4.7461 12.914-4.7461 13.711v.5273c0 .6094.1406 1.207.4219 1.793.9375 1.8984 2.0625 2.8476 3.375 2.8476h37.9687zm69.8203-29.6367l4.3243-12.0235h-50.2032l-3.2695 9.0704h36.8086l-1.0547 2.953h13.3945zM354.9824 275l4.8516-13.5v-.1055h-13.3945l-1.582 4.5352h-13.5c1.387-3.7732 2.2854-6.2666 2.6953-7.4803l.0732-.219c.123-.372.1845-.583.1845-.6327h15.9258l2.9532-8.332h-15.7149c.211-.7735.668-2.1095 1.3711-4.0079h-19.1953L308.8926 275h46.0898zm59.168 0l3.164-8.8594h-.5273c-.6797 0-1.1367-.2812-1.371-.8437v-.211c.914-2.4023 1.371-3.8789 1.371-4.4296v-.7383c0-1.172-.8789-2.1211-2.6367-2.8477v-.1055c.5625-.082 1.8633-.9609 3.9023-2.6367 1.711-1.7344 2.9063-4.0195 3.586-6.8554 1.5468-3.586 2.3203-6.2579 2.3203-8.0157v-.6328c0-.5976-.0703-1.0547-.211-1.371-.6562-2.7423-3.2226-4.1134-7.6992-4.1134h-43.4531l-3.2695 9.0704h32.5898c.9024 0 1.4649.5625 1.6875 1.6875 0 .6445-.6328 2.578-1.8984 5.8007-.961 2.1094-2.3672 3.1641-4.2188 3.1641h-5.6953l-2.9531 8.332h6.3281c1.125.1407 1.6875.5977 1.6875 1.3711v.3164c-1.4062 4.0078-2.1094 6.2578-2.1094 6.75v.5274c0 .6094.1407 1.207.422 1.793.9374 1.8984 2.0624 2.8476 3.375 2.8476h15.6093zm-33.3281 0l10.7578-29.7422h-19.1953L361.627 275h19.1953zm70.0312-17.4023l2.9531-8.332h-6.2226c-.9727 0-1.5352-.6329-1.6875-1.8985v-.3164l4.957-13.711h-19.1953l-1.4766 4.1133c-3.4453 9.2578-5.168 14.25-5.168 14.9766v.5273c0 .6094.1407 1.207.422 1.793.9374 1.8984 2.0624 2.8477 3.375 2.8477h22.043zM460.4512 275c3.9023 0 6.3984-1.0898 7.4883-3.2695l13.9218-38.3907H462.666c-6.3984 17.7188-9.6328 26.6133-9.7031 26.6836-.9727 3.9375-2.6953 5.9063-5.168 5.9063h-6.2226c-.9727 0-1.5352-.6328-1.6875-1.8985v-.2109c0-.1992.246-.9726.7382-2.3203v-.1055h-19.1953c-1.828 5.0157-2.7422 7.8282-2.7422 8.4375v.5274c0 .6094.1407 1.207.422 1.793.9374 1.8984 2.0624 2.8476 3.375 2.8476h37.9687z" transform="translate(-38 -233)"/></svg>