<?xml version="1.0" encoding="UTF-8"?>
<svg width="263px" height="68px" viewBox="0 0 263 68" version="1.1" xmlns="http://www.w3.org/2000/svg" xmlns:xlink="http://www.w3.org/1999/xlink">
    <title>Alfred</title>
    <g id="Page-1" stroke="none" stroke-width="1" fill="none" fill-rule="evenodd">
        <g id="Alfred" transform="translate(-123.000000, -210.000000)" fill="#000000" fill-rule="nonzero">
            <path d="M144.445,277 L144.445,275.65 C131.035,276.19 135.805,262.15 137.065,258.55 L159.385,258.55 L162.265,265.75 C163.345,268.27 166.135,275.65 160.195,275.65 L160.195,277 L183.325,277 L183.325,275.65 C183.205492,275.641148 183.086854,275.633819 182.968938,275.627029 L182.734021,275.613876 C180.549609,275.492373 178.581557,275.329836 175.855,268.72 C175.855,268.72 175.382248,267.513424 174.33796,264.90468 L174.1054,264.32413 C171.2893,257.299 164.857,241.423 153.265,213.64 L152.095,213.64 L136.705,254.68 C129.1702,273.7627 126.628843,275.405614 124.062146,275.61459 L123.892823,275.626461 C123.695113,275.638282 123.4966,275.6437 123.295,275.65 L123.295,277 L144.445,277 Z M158.845,257.2 L137.335,257.2 L147.685,229.12 L158.845,257.2 Z M204.475,277 L204.475,275.65 C201.307,274.858 200.806378,272.431156 200.785692,267.696408 L200.785,210.22 L186.745,213.1 L186.745,214.45 C190.435,215.44 191.245,216.79 191.245,219.94 L191.245,267.37 C191.245,271.96 191.065,274.66 187.645,275.65 L187.645,277 L204.475,277 Z M227.335,277 L227.335,275.65 C224.095,274.93 223.285,272.95 223.285,268.09 L223.285,236.77 L232.915,236.77 L233.185,235.42 L223.285,235.42 C223.285,216.16 225.625,211.3 229.495,211.3 C232.465,211.3 233.815,212.92 232.735,213.1 C231.565,213.37 230.575,214.18 229.945,215.44 C228.865,217.96 229.855,220.75 232.375,221.92 C234.805,223 237.685,221.92 238.855,219.49 C239.575,217.78 239.215,215.44 238.225,214 C237.325,212.65 233.905,210.04 229.405,210.04 C218.785,210.04 213.745,215.26 213.745,235.42 L207.895,235.42 L207.985,236.77 L213.745,236.77 L213.745,268.09 C213.745,272.59 213.655,274.84 210.235,275.65 L210.235,277 L227.335,277 Z M254.245,277 L254.245,275.65 C251.005,274.75 250.555,272.32 250.555,267.28 L250.555,246.67 C253.615,241 258.475,239.47 258.295,240.73 C258.205,242.08 258.745,243.52 259.825,244.69 C262.255,246.94 265.855,246.85 268.105,244.6 C270.355,242.35 270.355,238.66 268.105,236.41 C266.485,234.88 263.695,234.52 261.895,234.97 C259.015,235.69 254.605,237.58 250.555,244.33 L250.555,234.61 L236.425,237.67 L236.425,239.02 C240.115,240.37 240.925,241.72 240.925,244.78 L240.925,267.28 C240.925,271.96 240.745,274.57 237.325,275.65 L237.325,277 L254.245,277 Z M293.665,277.81 C305.005,277.81 310.225,270.61 311.395,266.2 L310.135,265.57 C308.155,269.89 301.405,272.41 296.185,271.6 C289.705,270.61 284.755,265.84 284.215,255.4 L312.835,255.4 C312.835,241.27 306.265,234.61 294.475,234.61 C282.685,234.61 274.135,243.52 274.135,256.48 C274.135,267.73 282.235,277.81 293.665,277.81 Z M303.475,254.05 L284.215,254.05 C284.215,244.06 288.895,235.96 294.115,235.96 C298.705,235.96 303.475,241.81 303.475,254.05 Z M338.665,277.81 C342.985,277.81 349.285,275.83 352.165,270.88 L352.165,276.1 C352.165,276.1 352.165,278.08 354.685,277.72 L366.205,275.92 L366.205,274.57 C362.515,274.3 361.615,273.49 361.615,269.08 L361.615,210.22 L347.575,213.1 L347.575,214.45 C351.265,215.44 352.165,216.52 352.165,219.67 L352.165,237.58 C349.285,235.78 345.505,234.61 341.185,234.61 C328.945,234.61 319.585,241.36 319.585,255.67 C319.585,268.99 327.505,277.81 338.665,277.81 Z M341.995,274.93 C334.435,274.93 330.655,268.99 330.655,254.59 C330.655,240.55 335.065,235.96 341.365,235.96 C346.675,235.96 352.165,240.01 352.165,250 L352.165,264.22 C352.165,270.52 348.025,274.93 341.995,274.93 Z M378.895,277.45 C382.405,277.45 385.375,274.57 385.375,270.97 C385.375,267.37 382.405,264.49 378.895,264.49 C375.295,264.49 372.415,267.37 372.415,270.97 C372.415,274.57 375.295,277.45 378.895,277.45 Z" id="Alfred."></path>
        </g>
    </g>
</svg>