<?xml version="1.0" encoding="UTF-8"?>
<svg width="700px" height="280px" viewBox="0 0 700 280" version="1.1" xmlns="http://www.w3.org/2000/svg" xmlns:xlink="http://www.w3.org/1999/xlink">
    <title>Lumos</title>
    <g id="Lumos" stroke="none" stroke-width="1" fill="none" fill-rule="evenodd">
        <g id="image" transform="translate(115.000000, 65.000000)">
            <path d="M139.605406,112.021293 C139.71291,111.430018 139.390397,111 138.74537,111 L116.491936,111 C115.954413,111 115.578147,111.322514 115.524395,111.860036 L109.020372,148.41157 C108.912868,149.002845 109.235381,149.432863 109.880408,149.432863 L116.545688,149.432863 C117.136963,149.432863 117.459476,149.110349 117.513229,148.572827 L119.93208,135.188515 L132.671365,135.188515 C133.208887,135.188515 133.531401,134.866002 133.638905,134.328479 L134.71395,128.469483 C134.767703,127.824456 134.498941,127.44819 133.853914,127.44819 L121.329639,127.44819 L122.888454,118.740325 L137.616572,118.740325 C138.207847,118.740325 138.530361,118.471564 138.584113,117.880289 L139.605406,112.021293 Z M143.863592,149.432863 C144.401115,149.432863 144.723628,149.110349 144.831133,148.572827 L148.325029,128.738244 C149.238818,128.361979 150.421367,128.093217 151.818926,128.093217 C152.947723,128.093217 154.022768,128.200722 154.936557,128.361979 C155.527832,128.415731 155.95785,128.14697 156.011602,127.555695 L156.979143,122.287974 C157.086647,121.750451 156.817886,121.320433 156.226611,121.212929 C154.760105,120.89839 153.265015,120.736271 151.765174,120.729158 C148.378782,120.729158 144.938637,121.535442 141.821006,122.986753 C141.403197,123.177141 141.102947,123.557458 141.014723,124.008046 L136.766615,148.41157 C136.65911,149.002845 136.981624,149.432863 137.626651,149.432863 L143.863592,149.432863 Z M176.791888,148.250313 C177.275658,148.089056 177.490667,147.712791 177.598172,147.22902 L180.017023,133.6297 C181.468334,125.566861 177.705676,120.729158 170.39537,120.729158 C166.041437,120.729158 162.010018,121.696699 159.429909,123.255514 C159.107396,123.470523 159.107396,123.846789 159.268653,124.330559 L160.934973,128.738244 C161.149982,129.329519 161.58,129.437024 162.171274,129.168262 C163.783842,128.415731 166.202694,127.931961 168.567793,127.931961 C171.954185,127.931961 172.706717,129.383271 172.222946,132.017132 L172.115442,132.877168 C170.771635,132.608407 169.159068,132.44715 167.5465,132.44715 C160.666211,132.44715 156.258526,134.758497 155.344738,139.972466 C154.269693,145.831462 158.086103,150.131642 165.611419,150.131642 C169.750343,150.131642 173.728009,149.325358 176.791888,148.250313 L176.791888,148.250313 Z M163.353824,140.402484 C163.622585,138.789916 165.020144,137.92988 167.654005,137.92988 C168.836554,137.92988 170.072856,138.091137 171.094149,138.306146 L170.341617,142.982592 C169.374077,143.197601 167.869014,143.41261 166.632712,143.41261 C164.267612,143.41261 162.977558,142.44507 163.353824,140.402484 L163.353824,140.402484 Z M205.058856,122.879249 C203.392536,121.535442 201.081189,120.729158 198.393576,120.729158 C195.060936,120.729158 191.137021,121.535442 187.965638,122.879249 C187.550082,123.044013 187.246482,123.408333 187.159354,123.846789 L182.697917,148.41157 C182.590413,149.056597 182.912926,149.432863 183.504201,149.432863 L189.68571,149.432863 C190.223233,149.432863 190.545746,149.164102 190.653251,148.572827 L194.308404,128.415731 C195.060936,128.039465 196.243486,127.770704 197.426035,127.770704 C199.844887,127.770704 200.973684,129.275767 200.382409,132.715911 L197.641044,148.41157 C197.53354,149.002845 197.856053,149.432863 198.50108,149.432863 L204.575085,149.432863 C205.112608,149.432863 205.488874,149.110349 205.542626,148.572827 L208.176486,133.844709 C208.499,132.017132 208.499,130.243308 208.230239,128.738244 C209.197779,128.200722 210.541586,127.770704 211.83164,127.770704 C214.411748,127.770704 215.64805,129.275767 215.056775,132.715911 L212.31541,148.41157 C212.261658,149.002845 212.530419,149.432863 213.175446,149.432863 L219.249451,149.432863 C219.786974,149.432863 220.163239,149.110349 220.216992,148.572827 L222.904604,133.844709 C224.194659,126.211888 220.432001,120.729158 213.014189,120.729158 C210.326577,120.729158 207.585212,121.535442 205.058856,122.879249 L205.058856,122.879249 Z M228.106815,131.049591 L226.709256,138.843668 C225.472954,145.831462 230.36441,150.131642 237.405955,150.131642 C242.082401,150.131642 245.737555,148.841588 248.640177,146.852755 C249.123947,146.583993 249.177699,146.100223 248.96269,145.5627 L246.758848,141.423777 C246.490086,140.832502 246.060068,140.77875 245.522546,141.155015 C243.372456,142.44507 240.899852,143.305106 238.534753,143.305106 C235.578378,143.305106 234.288324,141.907547 234.825847,139.058677 L234.987104,138.306146 L249.930231,138.306146 C250.467753,138.306146 250.790267,138.037385 250.897771,137.499862 L251.81156,132.285893 C253.262871,124.384312 248.371415,120.729158 241.491127,120.729158 C234.987104,120.729158 229.396869,124.008046 228.106815,131.049591 L228.106815,131.049591 Z M243.802474,132.93092 L235.954644,132.93092 L236.223406,131.479609 C236.707176,128.953253 238.481,127.555695 240.792347,127.555695 C243.533712,127.555695 244.447501,129.437024 244.071235,131.587114 L243.802474,132.93092 Z M265.558699,149.432863 C266.042469,149.432863 266.418735,149.164102 266.579992,148.680331 L270.396402,139.5962 C271.148934,137.714871 272.600245,133.6297 273.191519,131.694618 L273.352776,131.694618 C273.406528,133.575947 273.460281,137.123596 273.514033,139.5962 L273.890299,148.519074 C273.944051,149.110349 274.266564,149.432863 274.857839,149.432863 L281.576871,149.432863 C282.114394,149.432863 282.49066,149.164102 282.705669,148.734084 L294.208651,122.502983 C294.531165,121.857956 294.208651,121.48169 293.509872,121.48169 L287.328363,121.48169 C286.856867,121.458588 286.423621,121.740198 286.253318,122.180469 L282.97443,131.103344 C282.060642,133.6297 280.501826,137.822376 279.749295,140.241227 L279.534286,140.241227 C279.588038,137.553614 279.480533,134.059718 279.373029,131.318353 L278.943011,122.717992 C278.943011,122.126717 278.620497,121.857956 278.029222,121.857956 L271.632704,121.857956 C271.161208,121.834854 270.727962,122.116463 270.557659,122.556735 L267.117514,131.2646 C266.149974,133.737204 264.85992,137.499862 263.999884,140.241227 L263.784875,140.241227 C263.784875,137.822376 263.731122,133.575947 263.67737,131.210848 L263.462361,122.395478 C263.462361,121.750451 263.086095,121.48169 262.49482,121.48169 L256.313311,121.48169 C255.722036,121.48169 255.34577,121.804203 255.399523,122.44923 L257.764622,148.572827 C257.818374,149.164102 258.19464,149.432863 258.732163,149.432863 L265.558699,149.432863 Z M317.987305,139.488696 L319.223607,132.715911 C320.352405,126.158136 316.052224,120.729158 308.688165,120.729158 C301.216602,120.729158 295.948881,124.760577 294.766331,131.2646 L293.637534,137.92988 C292.401232,144.756417 296.755164,150.131642 303.957967,150.131642 C311.859548,150.131642 316.751004,146.26148 317.987305,139.488696 L317.987305,139.488696 Z M301.700372,138.736164 L302.936674,131.802123 C303.366692,129.383271 305.194269,127.770704 307.774377,127.770704 C310.354485,127.770704 311.483283,129.759537 311.053264,132.178389 L309.816963,139.058677 C309.386945,141.585033 307.666872,143.090097 304.871755,143.090097 C302.345399,143.090097 301.216602,141.370024 301.700372,138.736164 Z M328.531146,149.432863 C329.068669,149.432863 329.391182,149.110349 329.498687,148.572827 L332.992584,128.738244 C333.906372,128.361979 335.088922,128.093217 336.48648,128.093217 C337.615278,128.093217 338.690323,128.200722 339.604111,128.361979 C340.195386,128.415731 340.625404,128.14697 340.679156,127.555695 L341.646697,122.287974 C341.754201,121.750451 341.48544,121.320433 340.894165,121.212929 C339.427659,120.89839 337.932569,120.736271 336.432728,120.729158 C333.046336,120.729158 329.606192,121.535442 326.488561,122.986753 C326.070751,123.177141 325.770501,123.557458 325.682277,124.008046 L321.435849,148.41157 C321.328344,149.002845 321.650858,149.432863 322.295885,149.432863 L328.531146,149.432863 Z M360.856409,121.48169 C360.372639,121.48169 359.996373,121.589194 359.727612,121.96546 L352.094791,130.29706 L355.319927,112.021293 C355.427431,111.430018 355.104918,111 354.459891,111 L348.224629,111 C347.687107,111 347.364593,111.322514 347.257088,111.860036 L340.753066,148.41157 C340.699313,149.002845 341.021827,149.432863 341.613102,149.432863 L347.848363,149.432863 C348.385886,149.432863 348.762152,149.110349 348.815904,148.572827 L350.105958,141.423777 L352.471057,139.166182 L356.502476,148.680331 C356.663733,149.217854 357.039999,149.432863 357.577522,149.432863 L364.404058,149.432863 C365.102837,149.432863 365.371599,149.002845 365.102837,148.357818 L358.168796,133.414691 L368.704239,122.610487 C369.241761,122.019212 369.026752,121.48169 368.220468,121.48169 L360.856409,121.48169 Z" id="Framework" fill="#005EFF" fill-rule="nonzero"></path>
            <path d="M109,94.3337066 L170.43785,94.3337066 L170.43785,76.3135498 L127.987682,76.3135498 L127.987682,0 L109,6.04703247 L109,94.3337066 Z M203.533595,95.1802912 C211.636618,95.1802912 219.255879,92.0358343 224.94009,86.3516237 C230.6243,80.6674132 233.768757,73.0481523 233.768757,64.9451288 L233.768757,26.9697648 L215.62766,26.9697648 L215.62766,64.9451288 C215.62766,71.5968645 210.18533,77.0391937 203.533595,77.0391937 C196.881859,77.0391937 191.43953,71.5968645 191.43953,64.9451288 L191.43953,26.9697648 L173.298432,26.9697648 L173.298432,64.9451288 C173.298432,73.0481523 176.441209,80.6674132 182.12542,86.3516237 C187.80963,92.0358343 195.428891,95.1802912 203.531915,95.1802912 L203.533595,95.1802912 Z M332.636058,35.7984323 C327.193729,30.356103 319.816349,27.3325868 312.076148,27.3325868 C304.577828,27.3325868 297.442329,30.1142217 292.120941,35.3146697 C286.678611,30.1142217 279.543113,27.3325868 272.044793,27.3325868 C268.295633,27.3325868 264.546473,28.0582307 261.160134,29.5095185 L261.160134,26.2441209 L243.019037,26.2441209 L243.019037,94.3337066 L261.160134,94.3337066 L261.160134,56.3583427 C261.160134,50.4322508 265.99776,45.4736842 272.044793,45.4736842 C278.091825,45.4736842 283.050392,50.4322508 283.050392,56.3583427 L283.050392,94.3337066 L301.191489,94.3337066 L301.191489,56.3583427 C301.191489,50.4322508 306.029115,45.4736842 312.076148,45.4736842 C318.12318,45.4736842 323.081747,50.4322508 323.081747,56.3583427 L323.081747,94.3337066 L341.222844,94.3337066 L341.222844,56.3583427 C341.222844,48.6181411 338.199328,41.3617021 332.636058,35.7984323 Z M380.743561,95.1802912 C385.339306,95.1802912 389.93505,94.212766 394.167973,92.5195969 C398.279955,90.7054871 402.029115,88.2866741 405.173572,85.1422172 C408.267827,81.9417661 410.766115,78.2148113 412.550952,74.1366181 C414.365062,69.9036954 415.211646,65.3079507 415.211646,60.712206 C415.211646,55.9955207 414.365062,51.5207167 412.550952,47.287794 C410.736842,43.1758119 408.318029,39.4266517 405.173572,36.2821948 C401.973144,33.187912 398.246184,30.68962 394.167973,28.9048152 C389.93505,27.0907055 385.339306,26.2441209 380.743561,26.2441209 C376.147816,26.2441209 371.552072,27.0907055 367.319149,28.9048152 C363.240938,30.68962 359.513978,33.187912 356.31355,36.2821948 C353.219267,39.4826233 350.720975,43.2095834 348.93617,47.287794 C347.243001,51.5207167 346.275476,55.9955207 346.275476,60.712206 C346.275476,65.3079507 347.243001,69.9036954 348.93617,74.1366181 C350.720975,78.2148287 353.219267,81.9417887 356.31355,85.1422172 C359.513978,88.2365001 363.240938,90.7347921 367.319149,92.5195969 C371.552072,94.212766 376.147816,95.1802912 380.743561,95.1802912 L380.743561,95.1802912 Z M380.743561,44.3852184 C389.693169,44.3852184 397.070549,51.762598 397.070549,60.712206 C397.070549,69.6618141 389.693169,77.0391937 380.743561,77.0391937 C371.793953,77.0391937 364.416573,69.6618141 364.416573,60.712206 C364.416573,51.762598 371.793953,44.3852184 380.743561,44.3852184 Z M446.867861,95.0593505 C459.082867,95.0593505 469,85.1422172 469,72.9272116 C469,60.712206 459.082867,50.7950728 446.867861,50.7950728 L441.788354,50.7950728 C440.952608,50.8009379 440.149391,50.4715316 439.558414,49.8805553 C438.967438,49.2895791 438.638032,48.4863619 438.643897,47.6506159 C438.643897,45.8365062 439.974244,44.3852184 441.788354,44.3852184 L467.06495,44.3852184 L467.06495,25.3975364 L441.788354,25.3975364 C429.573348,25.3975364 419.656215,35.4356103 419.656215,47.6506159 C419.656215,59.8656215 429.573348,69.7827548 441.788354,69.7827548 L446.867861,69.7827548 C448.56103,69.7827548 450.012318,71.2340426 450.012318,72.9272116 C450.012318,74.7413214 448.56103,76.0716685 446.867861,76.0716685 L418.567749,76.0716685 L418.567749,95.0593505 L446.867861,95.0593505 Z" id="Lumos" fill="#005EFF" fill-rule="nonzero"></path>
            <path d="M20.5466823,7.40869886 C17.5848867,8.93336003 17.4866344,12.9102144 20.3716806,14.479709 L21.0759879,14.8630672 L24.3841478,14.9319417 C27.0726894,14.9881459 27.765418,15.0401267 28.0830014,15.2093891 L28.4740259,15.417962 L27.6860222,15.642454 C27.2529841,15.7659083 26.6303884,15.9731817 26.3028805,16.1031336 C25.9753727,16.2334104 25.2608102,16.4819435 24.7149638,16.6554294 C24.1691174,16.8292401 23.5438752,17.0355388 23.3255366,17.1138348 C23.1071981,17.1924558 22.6605965,17.3389766 22.3330886,17.4396893 C21.4736287,17.7034918 20.5119466,18.0374683 19.7527239,18.335708 C19.3888263,18.4786551 18.7338106,18.7028222 18.2971335,18.8337488 C17.8604564,18.9646754 16.9077064,19.2837074 16.1799112,19.5423118 C15.452116,19.8005913 14.4398191,20.1475629 13.9303624,20.3126019 C10.7538673,21.3427959 9.7634042,22.0341403 9.23343698,23.5899899 C8.53607687,25.6370579 9.42597189,27.5327319 11.5709828,28.5677991 C13.0288889,29.2714888 14.1976618,29.1447857 17.0400328,27.9742436 C17.4403201,27.8092046 17.976242,27.6357188 18.2309703,27.5879614 C18.4856986,27.540529 18.9061658,27.3962823 19.1651947,27.2676299 C19.4242236,27.1389775 20.0124145,26.9378768 20.4722487,26.8205952 C20.9320829,26.7036385 21.4345924,26.529178 21.5890835,26.4326887 C21.7435745,26.3361993 22.2424451,26.1656374 22.6976479,26.053229 C23.1531815,25.9408206 23.6593299,25.7653854 23.8224222,25.6633732 C23.9858453,25.5613609 24.4919938,25.3859258 24.9471966,25.2735173 C25.4027302,25.1611089 25.9088787,24.9869733 26.071971,24.8865854 C26.2353941,24.7858727 26.6965516,24.6296054 27.0968389,24.5392888 C27.4971263,24.4489722 27.9437279,24.300827 28.0892869,24.2101856 C28.2348459,24.1192192 28.711221,23.9502817 29.1478981,23.8342996 C29.5845752,23.7183174 30.0589653,23.5591263 30.2022086,23.4805054 C30.345452,23.4015596 30.8813739,23.2033829 31.3931462,23.0396434 C32.2575684,22.7631707 32.9790781,22.510739 35.3672387,21.6504572 C36.2111503,21.3463696 37.9909404,20.7161027 41.3880898,19.5176209 C42.0794952,19.2736361 42.9429249,18.9861174 43.3068225,18.8785822 C43.6707201,18.771047 44.1173217,18.6040587 44.2992705,18.5072445 C44.4812193,18.4104303 44.9575943,18.2434421 45.3578817,18.1362317 C45.758169,18.0290214 46.3834113,17.8220729 46.7473089,17.6768516 C47.4053019,17.4136989 47.8290772,17.2691274 49.7246528,16.6616021 C50.2704992,16.4868167 50.8957414,16.258751 51.11408,16.1551144 C51.3324185,16.0511528 51.8402211,15.8831899 52.2424933,15.7811777 C52.6447655,15.6794903 53.278609,15.4459016 53.6511078,15.2620196 C54.0236066,15.0784625 54.4033834,14.9280432 54.4950194,14.9280432 C54.7867991,14.9280432 55.5334508,14.2851059 56.0700343,13.5719946 C57.6821007,11.4287622 57.1580881,8.85701326 54.810287,7.39083047 L54.2899135,7.06595061 L37.8152771,7.03281287 L21.3406407,7 L20.5466823,7.40869886 M68.7149857,23.377884 C67.8433993,23.6572111 67.061977,23.937176 66.9784917,24 C66.8950064,24.0631282 66.4966146,24.1884428 66.0932137,24.2790009 C65.6898128,24.3692401 65.058664,24.5771411 64.6906609,24.7407196 C64.3226577,24.9042982 63.8988864,25.0388598 63.7492807,25.0394976 C63.5993412,25.0401353 63.2386847,25.1577971 62.947822,25.3006493 C62.6566253,25.4435015 62.0278141,25.6539534 61.5502782,25.7681076 C61.0727424,25.8822618 60.5618124,26.0483913 60.4148783,26.1367173 C60.2679442,26.2250434 59.7643609,26.3911728 59.2958415,26.5059648 C58.827322,26.6204379 58.3160581,26.7942201 58.1597736,26.8921122 C58.0034892,26.9900042 57.5135975,27.1503941 57.0711255,27.2492427 C56.6286534,27.3477724 56.0819918,27.5193226 55.8562475,27.6309259 C55.6308373,27.7422104 55.1516317,27.9022814 54.7913092,27.9861433 C54.4313206,28.070324 53.9564563,28.2268875 53.7360551,28.3340267 C53.515654,28.4414847 52.8845052,28.6589517 52.3335023,28.8171095 C51.7824994,28.9755861 50.7305847,29.3129469 49.9959142,29.5664458 C49.2612436,29.8199447 48.3295478,30.1353037 47.925479,30.2673145 C47.5214102,30.3993252 45.7481827,31.0045339 43.9849734,31.6122935 C42.221764,32.2197343 40.5086459,32.7889111 40.1780442,32.8765994 C39.8474424,32.9646065 39.3966219,33.1234021 39.1762207,33.2299035 C38.9558195,33.336086 38.5951631,33.4642704 38.3747619,33.5143324 C38.1543608,33.5643945 37.6133761,33.7381767 37.1725738,33.9001609 C36.7317714,34.0621451 36.0405132,34.2923668 35.6364444,34.4119417 C35.2323756,34.5311978 34.7214457,34.7062556 34.5010445,34.8006401 C34.2806433,34.8950245 33.709604,35.0888954 33.2320681,35.2311099 C31.649521,35.7027135 30.0916855,36.2259735 29.6889524,36.4211198 C29.470221,36.5269835 29.0537963,36.6545301 28.7636015,36.704911 C28.4730727,36.7552919 28.0185788,36.9019705 27.7537634,37.0311115 C27.4886141,37.1602524 26.8848485,37.3605006 26.4116539,37.4762492 C25.9384593,37.5919977 25.4312027,37.7597215 25.2842686,37.849323 C25.1373345,37.9386057 24.6865139,38.0856031 24.2824451,38.1761612 C23.8783763,38.2664005 23.3273734,38.4459223 23.0582168,38.5750633 C22.7890602,38.7042042 22.2781303,38.871928 21.9228169,38.9478182 C21.5675035,39.0237085 21.036537,39.1917512 20.7426688,39.3215298 C20.2130382,39.555259 19.3417857,39.8460653 17.5368337,40.3913271 C17.0225643,40.5466151 16.4815797,40.7376161 16.3346456,40.8154196 C16.1877114,40.893223 15.7669456,41.0421337 15.3996103,41.1460842 C15.032275,41.2500347 13.3492116,41.8099643 11.6594694,42.3906203 C9.9697271,42.9712762 8.22655426,43.5560775 7.78575194,43.6900014 C7.34494961,43.8242442 6.71380082,44.039798 6.38319908,44.1692578 C6.05259733,44.2987176 5.42144854,44.5190544 4.98064622,44.658718 C4.53984389,44.7983815 3.8786404,45.0081957 3.51130513,45.1249008 C0.482458833,46.0878778 -0.762807742,48.4242129 0.47310848,50.8240025 C1.20377173,52.2426397 2.45905654,53.0072817 4.04561098,53 C4.85241281,52.9961213 4.92654775,52.9744384 9.58903418,51.355553 C10.2869712,51.1132144 11.224344,50.8102912 11.6718252,50.6824257 C12.1196403,50.5545602 12.6663019,50.3606894 12.887371,50.251637 C13.1081061,50.1425847 13.5833044,49.9844269 13.9436269,49.900565 C14.3036154,49.8163842 14.7784798,49.6598207 14.9988809,49.5523627 C15.2192821,49.4449047 15.7602668,49.2590055 16.2010691,49.1387928 C17.0446045,48.90889 18.0781523,48.5724858 19.7408454,47.9860903 C20.2918483,47.7919006 21.0131612,47.5492431 21.3437629,47.446887 C22.7863887,47.0004738 23.726767,46.6879846 24.3492333,46.448197 C24.7165686,46.3069391 25.3176627,46.1200833 25.684998,46.0330327 C26.0523332,45.946301 26.5422249,45.7808093 26.7733122,45.6650607 C27.0047334,45.5496311 27.4729189,45.3956185 27.8135389,45.3225981 C28.1544928,45.2495776 28.686795,45.0805784 28.9960245,44.9469733 C29.305588,44.8133682 29.8592624,44.6150332 30.2265977,44.5066186 C31.427784,44.1514013 33.2931793,43.5350323 33.5660093,43.4030215 C33.7129434,43.3319143 34.1938186,43.1661037 34.634621,43.0344118 C35.3652842,42.816626 36.592184,42.4001863 40.1780442,41.1524615 C40.8759812,40.9098041 41.8096807,40.6075186 42.2531545,40.4806097 C42.6966284,40.3540197 43.3394651,40.1282622 43.6817548,39.9793515 C44.0240445,39.8304408 44.412752,39.7079961 44.5453266,39.7073583 C44.6779013,39.7067206 45.0869792,39.5731155 45.4543144,39.4104936 C45.8216497,39.2478717 46.415731,39.0447537 46.7747178,38.9592974 C47.1333706,38.8735223 47.6443006,38.6984646 47.9101177,38.5702803 C48.1756009,38.4420959 48.7102407,38.2727778 49.0979464,38.1943366 C49.485986,38.1158955 49.9374745,37.9676225 50.1014396,37.8649475 C50.2657386,37.7622725 50.820081,37.5853015 51.3333485,37.4721039 C51.8466161,37.3585874 52.3592157,37.1860806 52.4720879,37.0891452 C52.58496,36.9918909 53.0401218,36.831501 53.4835956,36.7326524 C53.9270695,36.6338038 54.4206345,36.4864874 54.5802584,36.4048576 C54.7398823,36.3232278 55.8475651,35.9437766 57.0417387,35.5617745 C58.2355783,35.1800912 59.8137842,34.6635274 60.5484547,34.4144927 C61.2831253,34.165139 62.3049852,33.8239518 62.8192546,33.6559092 C63.333524,33.4878665 64.445548,33.1112851 65.2904192,32.8185656 C66.1352903,32.526165 67.1872049,32.1719043 67.6280073,32.031603 C68.0688096,31.8913018 68.6097943,31.7012573 68.8301954,31.6094237 C69.0505966,31.5172713 69.5551817,31.3511418 69.9512359,31.2401763 C73.8603511,30.1451886 75.2729222,28.7214495 74.9573478,26.1950699 C74.6234066,23.5216929 71.9836018,22.3304075 68.7149857,23.377884 M70.0451959,43.1288534 C68.2576572,43.6482025 67.4505432,43.9108733 67.1065931,44.0856542 C66.8861979,44.197514 66.4123482,44.3606429 66.0533712,44.4481998 C65.6947281,44.5357567 65.1838119,44.7158643 64.9180019,44.8490307 C64.6525259,44.9821971 64.1045433,45.1679643 63.7004854,45.2621796 C63.2964275,45.3567277 62.8456191,45.5105349 62.698689,45.6047502 C62.5517588,45.6986325 62.1310044,45.8497764 61.763679,45.9406625 C61.3963537,46.0312157 60.7952758,46.236292 60.4279505,46.3964246 C60.0606251,46.5562243 59.5229944,46.7306723 59.2331413,46.783606 C58.9432882,46.8365396 58.4193487,47.0249701 58.06872,47.2020815 C57.7184252,47.3791928 57.3344032,47.5240113 57.2161912,47.5240113 C57.0976453,47.5240113 56.5997525,47.6848097 56.1095402,47.8812302 C55.6196617,48.0776507 54.8579625,48.3439836 54.4171721,48.473155 C53.2627687,48.8110648 50.8340803,49.6619982 50.6771322,49.7831797 C50.6036672,49.8397754 50.3204927,49.9263336 50.0476702,49.9752723 C49.7751815,50.0242109 49.2342115,50.2039856 48.8455145,50.3751045 C48.4571514,50.5458904 47.9288708,50.7306588 47.671743,50.7859229 C47.4146153,50.8411869 46.9544568,51.0026512 46.6492429,51.1448064 C46.3440289,51.2869616 45.8030588,51.4847137 45.4470872,51.5842556 C45.0911155,51.6837975 43.4475016,52.2547486 41.7945375,52.8529987 C38.6609184,53.9872437 37.1121412,54.5352236 35.9841184,54.9087554 C35.6167931,55.0306027 35.0157152,55.251659 34.6483899,55.4001395 C34.2810646,55.548953 33.6799867,55.7447076 33.3126614,55.8355937 C32.945336,55.9261469 32.4618023,56.0959341 32.2380678,56.2124547 C32.0146672,56.3293082 31.4436432,56.5237312 30.9691257,56.6449127 C30.494942,56.7660941 29.9733401,56.9508625 29.8100472,57.0557311 C29.6470884,57.1605997 29.19628,57.3124094 28.8082508,57.393308 C28.4205556,57.4742066 27.9229968,57.6473229 27.7026016,57.777826 C27.4822064,57.9083291 26.981976,58.0817784 26.5909415,58.1633428 C26.199907,58.2449073 25.5630984,58.4613027 25.1754032,58.6440736 C24.7880419,58.8268446 24.3566016,58.9769897 24.216684,58.9776555 C24.0771004,58.9783214 23.656012,59.1211424 23.2810062,59.2952575 C22.9063343,59.4693726 22.2758705,59.6807743 21.8801609,59.7653349 C21.4847853,59.8498956 21.0326412,60.003037 20.8756931,60.1055752 C20.718745,60.2081133 20.2084967,60.3905513 19.7416595,60.5110669 C19.2748224,60.6319155 18.7856118,60.7877202 18.6543765,60.8576325 C18.5231412,60.9278778 17.3794236,61.3473521 16.113153,61.7901304 C14.8472163,62.2325759 13.1197854,62.8364856 12.2749371,63.1317822 C10.3190966,63.8149259 9.32998959,64.1664853 7.66667364,64.7687305 C6.93202295,65.0347304 6.0304062,65.3446752 5.66308085,65.4578667 C5.29575551,65.5707252 4.75478545,65.7681445 4.46092518,65.8966501 C4.1670649,66.0251557 3.59604096,66.2265699 3.19198308,66.3444222 C-0.120957604,67.3112104 -1.07166238,70.9290093 1.37205296,73.270075 C2.86806891,74.7032787 3.95468407,74.7861748 6.86523653,73.690548 C10.8911223,72.1747812 10.9802822,72.1777774 11.458473,73.8337019 C12.7244097,78.2192052 13.0289558,78.7505393 14.7720815,79.6091298 C17.2501919,80.829933 20.2185146,79.0488321 20.3891539,76.2390205 C20.4572761,75.11443 20.4512653,75.0887955 19.2921869,71.4939678 C18.7879494,69.9302611 18.7916226,69.8969695 19.517925,69.4105791 C19.8652144,69.1785366 20.4061845,68.9451625 20.7200807,68.8925617 C21.0343108,68.839961 21.6206956,68.6518634 22.0234178,68.4744192 C22.4261399,68.2969749 23.0198713,68.0928973 23.3427836,68.0209875 C23.6653621,67.9487447 24.17728,67.7776258 24.4804904,67.6407973 C24.7833669,67.5039688 25.3016295,67.3231954 25.6322223,67.2393006 C25.9628152,67.1554057 26.5338391,66.9609827 26.9011644,66.8071755 C27.2684898,66.6537012 27.8395137,66.4492907 28.1701065,66.3534109 C28.5006994,66.2575311 29.4624239,65.9329379 30.3072722,65.6319818 C31.1521205,65.3313586 32.2641145,64.9418468 32.77837,64.7664 C34.4273268,64.2044377 35.9450484,63.6724379 37.5202062,63.1038172 C39.2596587,62.4756046 40.6227697,61.9998676 42.4580607,61.3796449 C43.1536413,61.1446062 43.834195,60.8925887 43.9701054,60.820013 C44.1063497,60.7474373 44.5591616,60.5992897 44.9762429,60.491092 C45.393658,60.3828942 45.8558201,60.2157704 46.0034181,60.1192247 C46.1510161,60.023012 46.5888011,59.8765289 46.9761624,59.7936328 C47.3635237,59.7107367 47.9038259,59.5302962 48.1769824,59.3928019 C48.4501388,59.2549746 49.0034644,59.0725366 49.4065205,58.9873101 C49.8095766,58.9020836 50.2750779,58.7439485 50.4407083,58.6354178 C50.6066726,58.5272201 51.1182566,58.3444492 51.5780811,58.2292602 C52.0375717,58.1140713 52.5474861,57.9349624 52.7114468,57.8310926 C52.8750735,57.7272228 53.4073613,57.5501115 53.8942344,57.4375858 C54.3811074,57.3247273 54.9083863,57.1499463 55.0656683,57.0490728 C55.2232843,56.9478663 55.7428827,56.7657612 56.2204056,56.6439139 C56.6979286,56.5220666 57.1500727,56.3719215 57.2252074,56.3099991 C57.3003421,56.2480767 57.7865473,56.080287 58.3058118,55.9368002 C58.8254102,55.7933134 59.426822,55.5849079 59.6425421,55.473714 C59.8582623,55.36252 60.3635016,55.1790832 60.7655559,55.0662247 C61.1676102,54.9533662 62.0675573,54.6544075 62.7654754,54.4013913 C63.4633936,54.148708 65.2666271,53.510175 66.772661,52.9821701 C68.2786949,52.4541653 69.9917667,51.8529189 70.5794873,51.646178 C73.2890126,50.6927064 73.8740617,50.2842184 74.6264108,48.8217181 C76.0740066,46.0079115 73.0535905,42.2552817 70.0451959,43.1288534 M61.661269,58.1923896 C59.9323295,58.7764931 59.3369619,59.6532902 58.0656632,63.4852658 C57.831327,64.191325 57.5866279,64.8845467 57.521776,65.0257585 C57.456924,65.1669704 57.1513844,66.0334975 56.8435048,66.9513744 C56.535291,67.8692513 56.1094076,69.0650588 55.8968002,69.6087243 C55.6841927,70.1523899 55.5103628,70.6828971 55.5103628,70.7875222 C55.5103628,70.8924683 55.370296,71.3141781 55.1991403,71.7249762 C53.4180518,75.9956713 53.5962275,77.9530598 55.900143,79.4223047 C58.1689583,80.8694051 61.6158058,79.4476587 62.1951275,76.8256117 C62.2746882,76.4668053 62.4505238,75.9741686 62.5865792,75.7308991 C62.7223003,75.4876296 62.9061589,74.9436431 62.9950796,74.5219333 C63.0840003,74.1002234 63.2421187,73.6265219 63.3460824,73.4689423 C63.4503804,73.3116837 63.6292247,72.7965814 63.743217,72.3244846 C63.8572093,71.8520668 64.0467509,71.2878614 64.1640861,71.0699458 C64.2814213,70.8523513 64.4843343,70.2987367 64.6147068,69.8397982 C64.8701031,68.9398937 65.2451747,67.8272087 65.7392529,66.502064 C67.2368649,62.4858712 67.3381542,61.4242149 66.371058,59.8631823 C65.4417363,58.3631276 63.3510967,57.6214445 61.661269,58.1923896 M9.6155464,85.0814746 C6.46212227,85.4904766 5.15917047,88.6482905 6.56039519,92.4850079 C6.69978228,92.8667873 6.87827799,93.5838687 6.95649521,94.078522 C7.03504669,94.5735074 7.24696856,95.4180699 7.42746983,95.9562129 C7.60830537,96.494024 7.75604901,97.1008873 7.75604901,97.3053883 C7.75604901,97.5095573 7.8823999,98.0556679 8.03682877,98.5184509 C8.19125764,98.981566 8.4275806,99.8981686 8.56161951,100.555493 C9.17198123,103.54632 9.6817302,104.55123 11.0689159,105.500035 L11.7996118,106 L36.5566988,106 L61.3137857,106 L62.1347323,105.472148 C63.0907205,104.857318 63.8260961,103.7641 64.0410263,102.637685 C64.1132268,102.260221 64.2572936,101.816693 64.3612489,101.651698 C64.4652043,101.487035 64.621973,101.023588 64.7095495,100.62189 C64.7967918,100.220191 64.9876552,99.5867694 65.133059,99.2142855 C65.2784628,98.8418015 65.4790198,98.2143553 65.5786297,97.8199605 C65.6782397,97.4255658 66.2822505,95.4917699 66.9210244,93.52212 C68.6224161,88.2781304 68.3810792,86.6610455 65.700301,85.3400887 L65.0484908,85.01873 L37.7058902,85.0014669 C22.6674599,84.9921714 10.0270225,85.0280255 9.6155464,85.0814746 M57.7601409,93.0998946 C58.0815813,93.3188582 58.0802707,93.8258248 57.7542429,94.9883284 C57.5710775,95.6425116 57.3623542,96.4239441 57.2902677,96.7248075 C56.9540822,98.1333489 58.7811485,98.0233595 36.4824858,97.9769947 L17.4480331,97.9373985 L17.1167626,97.5952468 C16.876911,97.3475168 16.7333933,96.9732143 16.5970842,96.2415309 C16.4938693,95.6851536 16.3172573,95.0035577 16.2048678,94.7267228 C15.9971275,94.215695 15.9283176,93.2511724 16.087891,93.0866959 C16.2078168,92.9624925 57.5779585,92.9760296 57.7601409,93.0998946 M14.6136967,109.180837 C11.765213,110.621897 11.3387357,112.280113 12.8792896,115.92785 C13.4992887,117.39559 14.372457,120.547889 14.61933,122.209482 C14.669036,122.543827 14.7923068,123.022041 14.8933756,123.272631 C14.9944444,123.522883 15.1737173,124.313153 15.2916861,125.028786 C15.4099864,125.744082 15.5882651,126.533001 15.6880084,126.781227 C15.7880831,127.02979 15.9580776,127.79338 16.0664366,128.477943 C16.1744642,129.162506 16.347441,129.931837 16.4504981,130.187492 C16.5538865,130.443148 16.7102946,131.108461 16.7984399,131.665702 C16.8865852,132.222944 17.0645325,132.866304 17.1934367,133.09528 C17.3226722,133.323918 17.5045961,133.749448 17.597712,134.040902 C17.6908278,134.332019 17.9075459,134.742013 18.0791972,134.952076 C18.2508484,135.16214 18.3913507,135.396856 18.3913507,135.473857 C18.3913507,135.812592 20.47138,138.162463 21.5569584,139.049997 C22.8055725,140.070931 24.191375,140.831819 25.9317469,141.451539 L27.4709752,142 L36.9482475,142 L46.4255198,142 L47.9385697,141.493417 C50.6054608,140.600479 52.3822837,139.430948 54.2045047,137.369154 C55.1615104,136.286417 55.3238832,136.072301 55.5806974,135.555924 C55.7026427,135.310737 55.8789333,135.019283 55.9723805,134.907835 C56.0661591,134.796386 56.287185,134.340462 56.4638069,133.894668 C56.7789428,133.098995 56.8800116,132.707913 57.8244251,128.626203 C58.0822334,127.51172 58.4368027,126.022365 58.6124304,125.316526 C58.7883896,124.610686 59.0004684,123.668442 59.0839744,123.222648 C59.1678119,122.776855 59.3484102,122.01698 59.4855987,121.534038 C59.6224558,121.051095 59.8202856,120.200035 59.9246681,119.642793 C60.1997079,118.176742 60.7497873,116.324336 61.0649232,115.804919 C61.2147039,115.557706 61.3379747,115.271656 61.3386374,115.168988 C61.3393002,115.066321 61.4864298,114.678278 61.6657027,114.306783 C62.0447936,113.521242 62.1147133,112.222362 61.8071991,111.672551 C61.7034793,111.486803 61.529177,111.152459 61.4201552,110.929562 C61.124239,110.324702 60.8180502,110.013322 60.0148016,109.501335 L59.2887631,109.038318 L37.1500538,109.008936 C17.7696946,108.983269 14.9616385,109.004883 14.6136967,109.180837 M51.8346655,118.218796 C52.0950569,118.524336 52.0439206,119.375389 51.7091797,120.318564 C51.5517337,120.761466 51.3576177,121.523348 51.277549,122.011491 C51.1974803,122.499962 51.017494,123.169396 50.8778784,123.499195 C50.7379265,123.829323 50.5515481,124.542031 50.4637417,125.082954 C50.3759353,125.623878 50.1976311,126.331996 50.0677718,126.656551 C49.9379126,126.981105 49.7865222,127.571203 49.7316853,127.967881 C49.5934154,128.968426 48.7792717,131.287841 48.4169441,131.713696 C47.709783,132.545079 47.1099407,133.005356 46.1053816,133.486942 L45.0358929,134 L36.6182528,133.997705 L28.2006127,133.995083 L27.2222946,133.557754 C24.0848136,132.154958 23.0805909,128.140321 24.9130871,124.328612 C25.1300799,123.877514 25.3073748,123.482148 25.3073748,123.449693 C25.3073748,123.032362 28.4428373,119.7065 28.8361158,119.7065 C28.8916256,119.7065 29.2253572,119.536683 29.5779285,119.329165 C30.3887079,118.851841 32.1576201,118.283379 33.2674796,118.143067 C35.1003122,117.911289 51.6304567,117.978823 51.8346655,118.218796" id="path0" fill="#FFC700"></path>
        </g>
    </g>
</svg>