<?xml version="1.0" encoding="UTF-8"?>
<svg width="392px" height="58px" viewBox="0 0 392 58" version="1.1" xmlns="http://www.w3.org/2000/svg" xmlns:xlink="http://www.w3.org/1999/xlink">
    <title>HAMMER</title>
    <defs>
        <linearGradient x1="50%" y1="0%" x2="50%" y2="100%" id="linearGradient-1">
            <stop stop-color="#0A4976" offset="0%"></stop>
            <stop stop-color="#5BB0EA" offset="100%"></stop>
        </linearGradient>
        <path d="M116.32,286 C117.706667,286 118.72,285.28 119.36,283.84 L119.36,283.84 L140.88,230.56 C141.52,229.12 141.093333,228.4 139.6,228.4 L139.6,228.4 L127.04,228.4 C125.706667,228.4 124.72,229.12 124.08,230.56 L124.08,230.56 L116.88,248.4 C116.666667,248.933333 116.293333,249.2 115.76,249.2 L115.76,249.2 L101.44,249.2 C100,249.2 99.0133333,249.893333 98.48,251.28 L98.48,251.28 L94.08,262.16 C93.5466667,263.546667 93.9733333,264.24 95.36,264.24 L95.36,264.24 L109.76,264.24 C110.293333,264.24 110.453333,264.506667 110.24,265.04 L110.24,265.04 L102.56,283.84 C101.92,285.28 102.32,286 103.76,286 L103.76,286 L116.32,286 Z M78.64,286 C79.9733333,286 80.96,285.28 81.6,283.84 L81.6,283.84 L103.12,230.56 C103.76,229.12 103.36,228.4 101.92,228.4 L101.92,228.4 L89.28,228.4 C87.9466667,228.4 86.96,229.12 86.32,230.56 L86.32,230.56 L64.8,283.84 C64.16,285.28 64.56,286 66,286 L66,286 L78.64,286 Z M138,286 C138.8,286 139.4,285.893333 139.8,285.68 C140.2,285.466667 140.693333,284.986667 141.28,284.24 L141.28,284.24 L168.16,250.48 L168.24,262.72 C168.24,263.2 167.973333,263.44 167.44,263.44 L167.44,263.44 L163.68,263.44 C162.826667,263.44 162.2,263.533333 161.8,263.72 C161.4,263.906667 160.906667,264.373333 160.32,265.12 L160.32,265.12 L153.28,274 C152,275.546667 152.213333,276.32 153.92,276.32 L153.92,276.32 L167.36,276.32 C167.893333,276.32 168.16,276.56 168.16,277.04 L168.16,277.04 L168.16,284.24 C168.106667,285.413333 168.72,286 170,286 L170,286 L182.64,286 C184.293333,286 185.12,285.226667 185.12,283.68 L185.12,283.68 L184.16,230.16 C184.16,228.986667 183.546667,228.4 182.32,228.4 L182.32,228.4 L169.68,228.4 C168.453333,228.4 167.36,228.986667 166.4,230.16 L166.4,230.16 L122.24,283.68 C120.96,285.226667 121.146667,286 122.8,286 L122.8,286 L138,286 Z M201.6,286 C203.093333,286 204.106667,285.306667 204.64,283.92 L204.64,283.92 L211.84,266.08 L213.6,278.4 C213.76,279.413333 214.453333,279.92 215.68,279.92 L215.68,279.92 L225.04,279.92 C226.16,279.92 227.2,279.413333 228.16,278.4 L228.16,278.4 L240.16,266 L232.96,283.92 C232.426667,285.306667 232.853333,286 234.24,286 L234.24,286 L246.8,286 C248.24,286 249.226667,285.306667 249.76,283.92 L249.76,283.92 L271.36,230.48 C271.893333,229.093333 271.466667,228.4 270.08,228.4 L270.08,228.4 L257.44,228.4 C256.32,228.4 255.28,228.906667 254.32,229.92 L254.32,229.92 L229.36,257.52 C229.2,257.68 229.066667,257.76 228.96,257.76 C228.906667,257.76 228.826667,257.6 228.72,257.28 L228.72,257.28 L225.76,229.92 C225.6,228.906667 224.933333,228.4 223.76,228.4 L223.76,228.4 L212.32,228.4 C210.933333,228.4 209.973333,229.093333 209.44,230.48 L209.44,230.48 L187.84,283.92 C187.306667,285.306667 187.706667,286 189.04,286 L189.04,286 L201.6,286 Z M273.12,286 C274.613333,286 275.626667,285.306667 276.16,283.92 L276.16,283.92 L283.36,266.08 L285.12,278.4 C285.28,279.413333 285.973333,279.92 287.2,279.92 L287.2,279.92 L296.56,279.92 C297.68,279.92 298.72,279.413333 299.68,278.4 L299.68,278.4 L311.68,266 L304.48,283.92 C303.946667,285.306667 304.373333,286 305.76,286 L305.76,286 L318.32,286 C319.76,286 320.746667,285.306667 321.28,283.92 L321.28,283.92 L342.88,230.48 C343.413333,229.093333 342.986667,228.4 341.6,228.4 L341.6,228.4 L328.96,228.4 C327.84,228.4 326.8,228.906667 325.84,229.92 L325.84,229.92 L300.88,257.52 C300.72,257.68 300.586667,257.76 300.48,257.76 C300.426667,257.76 300.346667,257.6 300.24,257.28 L300.24,257.28 L297.28,229.92 C297.12,228.906667 296.453333,228.4 295.28,228.4 L295.28,228.4 L283.84,228.4 C282.453333,228.4 281.493333,229.093333 280.96,230.48 L280.96,230.48 L259.36,283.92 C258.826667,285.306667 259.226667,286 260.56,286 L260.56,286 L273.12,286 Z M375.36,286 C376.693333,286 377.68,285.28 378.32,283.84 L378.32,283.84 L382.72,272.96 C383.253333,271.573333 382.826667,270.88 381.44,270.88 L381.44,270.88 L352.72,270.88 C352.24,270.88 352.08,270.613333 352.24,270.08 L352.24,270.08 L362.72,244.32 C362.88,243.786667 363.253333,243.52 363.84,243.52 L363.84,243.52 L392.56,243.52 C393.946667,243.52 394.906667,242.826667 395.44,241.44 L395.44,241.44 L399.84,230.56 C400.48,229.12 400.08,228.4 398.64,228.4 L398.64,228.4 L354.56,228.4 C353.226667,228.4 352.24,229.12 351.6,230.56 L351.6,230.56 L330.08,283.84 C329.44,285.28 329.84,286 331.28,286 L331.28,286 L375.36,286 Z M380.88,263.68 C382.213333,263.68 383.2,262.96 383.84,261.52 L383.84,261.52 L387.28,252.88 C387.92,251.44 387.52,250.72 386.08,250.72 L386.08,250.72 L365.92,250.72 C364.586667,250.72 363.6,251.44 362.96,252.88 L362.96,252.88 L359.52,261.52 C358.88,262.96 359.28,263.68 360.72,263.68 L360.72,263.68 L380.88,263.68 Z M398.16,286 C399.493333,286 400.48,285.28 401.12,283.84 L401.12,283.84 L417.12,244.32 C417.28,243.786667 417.653333,243.52 418.24,243.52 L418.24,243.52 L436.16,243.52 C436.64,243.52 436.8,243.786667 436.64,244.32 L436.64,244.32 L433.44,252.32 C433.226667,252.853333 432.853333,253.12 432.32,253.12 L432.32,253.12 L419.28,253.12 C417.946667,253.12 416.96,253.84 416.32,255.28 L416.32,255.28 L412.16,265.52 C411.626667,266.906667 412.053333,267.6 413.44,267.6 L413.44,267.6 L414.24,267.6 L420.56,284.64 C420.88,285.546667 421.706667,286 423.04,286 L423.04,286 L436.32,286 C438.293333,286 438.96,285.253333 438.32,283.76 L438.32,283.76 L432.16,267.6 C436.48,267.6 439.746667,266.96 441.96,265.68 C444.173333,264.4 445.973333,262.133333 447.36,258.88 L447.36,258.88 L454.48,241.92 C456.026667,238.186667 456.013333,235 454.44,232.36 C452.866667,229.72 450.186667,228.4 446.4,228.4 L446.4,228.4 L408.8,228.4 C407.466667,228.4 406.48,229.12 405.84,230.56 L405.84,230.56 L384.32,283.84 C383.68,285.28 384.08,286 385.52,286 L385.52,286 L398.16,286 Z" id="path-2"></path>
    </defs>
    <g id="Page-1" stroke="none" stroke-width="1" fill="none" fill-rule="evenodd">
        <g id="Hammer" transform="translate(-64.000000, -228.000000)" fill-rule="nonzero">
            <g id="HAMMER">
                <use fill="#554A3D" xlink:href="#path-2"></use>
                <use fill="url(#linearGradient-1)" xlink:href="#path-2"></use>
            </g>
        </g>
    </g>
</svg>